<svg enable-background="new 0 0 512 512" viewBox="0 0 512 512" xmlns="http://www.w3.org/2000/svg"><path d="m513.1 321.7v1.1c-7.1-1.1-13.4-4.3-19.2-8.3-12.7-8.6-21.3-20.5-27.9-34-7.2-14.8-10.6-30.7-12.9-46.9-1.7-12.2-8.6-17.9-20.9-18-3.3 0-4.4 1.1-3.3 4.2.7 2.1 1.4 4.1 2.1 6.2 6.1 17.7 10.7 35.7 11.5 54.5 1.1 29.5-4.5 57.5-18 83.9-2.6 5.1-2 6.1 3.7 6.8 4 .5 8 .5 11.8 1.4 7.4 1.7 14.8 12 13 17.5-6.3 18.7-12.4 37.4-19.8 55.7-.8 1.9-1.3 3.8 0 5.7 5.7 8.4 11.7 16.5 19.5 23.1 6 5.1 12 10.2 19.7 14.3-1.7.8-2.2 1.2-2.6 1.2-1.1 0-2.2-.2-3.2-.3-20.3-3.6-34.9-15.8-47.9-30.7-2-2.3-1.2-4.7-.7-7.2 4.1-17.4 8.6-34.8 11.5-52.4.4-2.5.7-5 .5-7.5-.2-3.5-5.9-8.9-8.9-8.3-4.1.8-2.7 4.7-3.1 7.2-2.6 19.1-9.3 35.9-22.2 50.8-29.8 34.6-78.9 45.4-119.9 25-5.2-2.6-10.3-3.8-16.1-3.6-26.5.9-52-4.4-76.3-14.5-26.3-10.8-49.1-27-67.8-48.6-4-4.6-7.6-9.7-11.3-14.6-1.5-1.9-2.9-3.5-5.7-3.3-11 .7-15.9 6.8-14.1 17.5 2.9 17.3 7.1 34.4 11.4 51.3 1.1 4.4.2 7.5-2.7 10.8-9 10-19.8 17.4-31.5 23.6-4.7 2.5-9.8 3.9-15 4.6-1.3.2-2.8.9-4.2-1.4 15.9-8.5 26.6-22.4 37.4-36.3 1.5-2 2.2-3.5 1-5.8-8.3-16.7-14-34.2-19-52-3.5-12.5 2.7-21.3 15.7-22.8 3.2-.4 6.5-.3 9.7-.7 7-.9 7.2-1.3 4.1-7.6-12.3-25.2-19.7-51.6-18.8-79.9.6-20.3 5.4-39.7 13-58.4 3.9-9.7 3.9-10.5-7.7-9.1-12.5 1.5-15.5 4.9-17 17.4-1.4 11.7-3.9 23.2-7.7 34.3-8 23.5-21.7 42.4-45.1 52.9-2.3 1-4.6 2.3-7.2 2.1 0-.4 0-.7 0-1.1 13.5-13.2 22.7-29.4 30-46.5 6.8-15.8 8.5-32.8 8.8-49.9.2-10.7 6.2-18 17-19.5 11.3-1.5 22.7-1.5 34-3.7 3.2-.6 4.5-1.6 5.8-4.2 5.7-12 12.2-23.4 22-32.7 2.7-2.6 1.1-3.5-1.1-4.6-7.2-3.7-13.4-8.6-19-14.3-2-2.1-3.7-4.4-4.4-7.4-3.9-16.8-9.6-32.8-18-48-7.4-13.5-15.1-26.8-25-38.7-1.1-1.4-3-2.6-2.7-4.9 2.4-.4 4.1.8 5.9 1.6 12 5.7 21.9 14.3 29.9 24.7 12.5 16.2 18.8 35.3 22.6 55.2.6 3-.1 6.7 2.6 8.6 11.7 8.5 23.5 17.2 39.4 14.6 6.5-1.1 13-.9 19.5 0 11.7 1.5 23.4 3.1 35.2 4.7-1.2-1-2.6-1.4-4-1.8-17.6-4.9-34.6-10.9-47.8-24.3-14.6-14.8-14.2-32.3 1.2-46.5 5.4-5 11.3-9 17.8-12.4 4.9-2.5 5-3.8.3-6.8-2.9-1.8-6-3.3-9.2-4.6-9.7-4-19.4-7.9-28.8-12.7-10.3-5.4-16-14.6-14.5-24.2h1.1c2.8 7.1 8.2 11.6 15 14.9 11.4 5.4 23.6 8.2 35.5 11.7 6.8 2 13.7 4.5 18.6 9.6 3.2 3.3 5.7 3.2 9.5 2.1 20.7-6 41.9-8.1 63.3-7.7 19.9.3 39.7 2.4 58.9 8.3 2.1.6 3.8.7 5.4-1.1 5.2-6.1 12.5-8.4 19.8-10.5 8-2.3 16.1-4.3 24-6.9 9.5-3.2 18.6-7.3 24-16.6.4-.7.9-1.8 2-1.4 1.3.5 1.1 1.8.9 2.8-.6 4.6-2.5 8.7-5.6 12.1-4.8 5.4-10.7 9.2-17.3 12-9.5 4.1-19 8-28.5 12.1-1.8.8-4.1 1.5-3.9 3.9.1 2.1 2.5 2.3 4.1 3.1 9.8 4.6 18.4 10.9 24.5 20 7.3 10.7 7.3 21.8-.1 32.4-6.1 8.8-14.4 15.2-24.1 19.7-9.4 4.4-18.9 8.2-28.8 11.5 3-.1 5.8-.6 8.6-1.1 17.5-3 35-6.4 52.7-1.3 1.4.4 2.9.2 4.3-.2 9.6-3.2 19-7 27.4-13 2.9-2 4.4-4.6 4.8-8 1.4-11 4.6-21.6 8.6-31.9 8.7-22.5 22.3-40.9 45-51.2 1.7-.8 3.3-2.3 6-1-1.2 1.5-2.2 2.9-3.3 4.3-9.3 11.3-17.8 23.3-24.7 36.2-8.4 15.7-14.3 32.4-18.3 49.7-.8 3.3-2.3 6-4.6 8.4-6.5 6.7-13.9 12.1-22.4 16.1-1.8.9-4 1.2-1.3 4 8.2 8.1 14 18 18.6 28.4 2.3 5.3 6.1 7.6 11.5 8.5 8.2 1.3 16.6 1.6 24.9 2.2 12.6 1 19.3 8.1 19.5 20.5.1 5.2.4 10.5 1 15.7 3.8 31 15.1 58.3 38 80.2zm-193.3 139.9c48.5 1.3 84-40.1 84.2-81 .2-40.5-34.5-81.8-83.6-81.9-49.8-.1-84 41-84.2 81.3-.1 40.5 34 82.2 83.6 81.6z"/><path d="m340.5 381.6 26.9-26.9c3.3-3.3 3.3-8.7 0-12l-6-6c-3.3-3.3-8.7-3.3-12 0l-26.9 26.9-26.9-26.9c-3.3-3.3-8.7-3.3-12 0l-6 6c-3.3 3.3-3.3 8.7 0 12l26.9 26.9-26.9 26.9c-3.3 3.3-3.3 8.7 0 12l6 6c3.3 3.3 8.7 3.3 12 0l26.9-26.9 26.9 26.9c3.3 3.3 8.7 3.3 12 0l6-6c3.3-3.3 3.3-8.7 0-12z"/></svg>